<svg width="28" height="28" viewBox="0 0 28 28" fill="none" xmlns="http://www.w3.org/2000/svg">
<path d="M23.8548 23.8607H19.7085V17.3635C19.7085 15.8142 19.677 13.8203 17.5478 13.8203C15.386 13.8203 15.0558 15.5062 15.0558 17.2492V23.8607H10.9095V10.5H14.8925V12.3212H14.9462C15.5027 11.2712 16.856 10.1628 18.8778 10.1628C23.079 10.1628 23.856 12.9278 23.856 16.527V23.8607H23.8548ZM6.2265 8.67183C4.89183 8.67183 3.81967 7.5915 3.81967 6.26267C3.81967 4.935 4.893 3.85583 6.2265 3.85583C7.5565 3.85583 8.6345 4.935 8.6345 6.26267C8.6345 7.5915 7.55533 8.67183 6.2265 8.67183ZM8.3055 23.8607H4.1475V10.5H8.3055V23.8607ZM25.9292 0H2.06617C0.924 0 0 0.903 0 2.01717V25.9828C0 27.0982 0.924 28 2.06617 28H25.9257C27.0667 28 28 27.0982 28 25.9828V2.01717C28 0.903 27.0667 0 25.9257 0H25.9292Z" fill="white"/>
</svg>
