<svg id="Layer_1" data-name="Layer 1" xmlns="http://www.w3.org/2000/svg" viewBox="0 0 60.68 66.06"><defs><style>.cls-1{fill:#ffdf6b;}.cls-2{fill:none;stroke:#ffdf6b;stroke-linecap:round;stroke-miterlimit:10;stroke-width:3px;}</style></defs><path class="cls-1" d="M116,219.69v18.85a1.59,1.59,0,0,1-2.89.91l-1.78-2.55a1.56,1.56,0,0,1-.29-.91V217.14a1.59,1.59,0,0,1,2.89-.91l1.78,2.55A1.56,1.56,0,0,1,116,219.69Z" transform="translate(-84 -211.83)"/><path class="cls-1" d="M123.8,230.77v18.85a1.59,1.59,0,0,1-2.89.91l-3.51-5a1.56,1.56,0,0,1-.29-.91V225.75a1.59,1.59,0,0,1,2.89-.91l3.51,5A1.56,1.56,0,0,1,123.8,230.77Z" transform="translate(-84 -211.83)"/><path class="cls-1" d="M111.08,224.23V240.3a1.59,1.59,0,0,1-1.59,1.59H98.68a1.59,1.59,0,0,1-1.59-1.59V213.42a1.59,1.59,0,0,1,1.59-1.59h0A12.4,12.4,0,0,1,111.08,224.23Z" transform="translate(-84 -211.83)"/><rect class="cls-1" x="13.09" y="45.31" width="13.99" height="9.86" rx="1.59"/><rect class="cls-1" x="13.09" y="31.78" width="13.99" height="11.92" rx="1.59"/><path class="cls-1" d="M137.79,225.71V254.6a12.4,12.4,0,0,1-12.4,12.4h0a1.59,1.59,0,0,1-1.59-1.59v-39.7a1.59,1.59,0,0,1,1.59-1.59H136.2A1.59,1.59,0,0,1,137.79,225.71Z" transform="translate(-84 -211.83)"/><rect class="cls-1" x="123.8" y="211.83" width="13.99" height="5.26" rx="1.59" transform="translate(177.6 217.09) rotate(180)"/><rect class="cls-1" x="123.8" y="217.98" width="13.99" height="5.26" rx="1.59" transform="translate(177.6 229.38) rotate(180)"/><path class="cls-2" d="M143.18,262.15A31.39,31.39,0,0,1,90.6,227.84" transform="translate(-84 -211.83)"/></svg>